<?xml version="1.0" encoding="utf-8"?>
<!-- Generator: Adobe Illustrator 15.0.0, SVG Export Plug-In . SVG Version: 6.00 Build 0)  -->
<!DOCTYPE svg PUBLIC "-//W3C//DTD SVG 1.1//EN" "http://www.w3.org/Graphics/SVG/1.1/DTD/svg11.dtd">
<svg version="1.1" id="Layer_1" xmlns="http://www.w3.org/2000/svg" xmlns:xlink="http://www.w3.org/1999/xlink" x="0px" y="0px"
	 width="493.023px" height="501.163px" viewBox="0 0 493.023 501.163" enable-background="new 0 0 493.023 501.163"
	 xml:space="preserve">
<g>
	<path fill="#E52420" d="M92.208,170.223c0.463,17.363,2.199,34.265,5.209,50.699c3.936,23.152,9.258,40.283,15.975,51.396
		c3.473,6.023,7.293,9.844,11.461,11.461c4.166,1.854,8.561,1.16,13.195-2.086c0.922-0.695,1.736-0.574,2.432,0.348
		c0.693,0.93,0.574,1.738-0.348,2.43c-5.789,3.939-11.346,4.742-16.67,2.434c-4.861-1.852-9.26-6.133-13.193-12.85
		c-6.947-11.576-12.389-29.051-16.322-52.438c-3.473-20.602-5.211-40.977-5.211-61.119c0-9.256,0.463-17.13,1.391-23.614
		c0.922-6.712,2.311-11.34,4.166-13.89c2.779-3.7,5.611-6.078,8.51-7.119c2.891-1.042,5.609-0.75,8.16,0.869
		c3.934,2.776,7.059,8.453,9.375,17.016c2.084,7.639,2.893,15.279,2.432,22.92c0,3.939-0.467,7.178-1.389,9.723
		c-0.928,3.011-2.318,5.096-4.168,6.25c-1.389,0.928-3.473,1.391-6.25,1.391c-2.084,0-4.516-0.349-7.293-1.043
		C101.586,172.771,97.764,171.844,92.208,170.223z M92.208,166.75l12.154,3.123c2.545,0.469,4.742,0.696,6.6,0.696
		c2.082,0,3.473-0.228,4.166-0.696c1.156-0.693,2.084-2.197,2.779-4.512c0.922-2.312,1.389-5.211,1.389-8.682
		c0.461-7.407-0.234-14.814-2.084-22.227c-2.084-7.639-4.861-12.501-8.334-14.584c-1.389-1.156-3.012-1.39-4.861-0.695
		c-2.084,0.695-4.4,2.664-6.945,5.904c-1.623,2.083-2.838,6.25-3.646,12.501c-0.814,6.251-1.217,13.892-1.217,22.919V166.75z"/>
	<path fill="#68B42E" d="M194.186,116.396c-0.467-25.465-0.693-47.924-0.693-67.369c0-1.156,0.574-1.736,1.734-1.736
		c1.156,0,1.738,0.58,1.738,1.736c0,19.679,0.227,42.251,0.693,67.717v1.389c1.389,102.789,2.084,159.279,2.084,169.465
		c0,1.16-0.58,1.736-1.736,1.736c-0.467,0-0.928-0.232-1.389-0.693c-4.861-3.701-8.51-6.6-10.939-8.684s-5.27-5.035-8.508-8.855
		c-3.246-3.82-5.904-7.814-7.986-11.98c-4.168-9.488-7.354-21.41-9.551-35.768c-2.203-14.352-2.719-28.59-1.562-42.713
		c1.389-15.51,4.975-28.998,10.766-40.457C174.622,128.724,183.075,120.796,194.186,116.396z M196.27,284.123
		c0-10.416-0.695-65.051-2.084-163.906c-18.986,8.105-29.865,28.36-32.643,60.771c-1.162,13.662-0.695,27.552,1.389,41.671
		c2.084,14.125,5.322,25.818,9.723,35.074C176.356,265.84,184.229,274.635,196.27,284.123z"/>
	<path fill="#ED6E2A" d="M239.674,116.744c-1.389,9.723-2.256,21.242-2.604,34.551c-0.348,13.316-0.467,23.908-0.348,31.775
		c0.115,7.873,0.576,20.662,1.389,38.373c0.809,17.711,1.33,28.422,1.562,32.123c0.463,11.111,1.27,18.871,2.432,23.266
		c1.389,3.939,3.125,6.832,5.209,8.68c2.311,2.086,5.438,2.666,9.377,1.738c1.615-0.229,3.125-2.43,4.514-6.6
		c1.389-4.166,2.658-9.949,3.82-17.363v-0.346v-0.695c2.082-13.424,3.238-31.133,3.473-53.131
		c0.461-18.98,0.348-37.732-0.348-56.256c-0.695-18.52-1.623-30.44-2.777-35.77c-0.234-1.154,0.227-1.85,1.389-2.083
		c1.154-0.229,1.85,0.233,2.084,1.39c1.154,5.789,2.082,17.943,2.777,36.463c0.695,18.523,0.809,37.275,0.348,56.256
		c-0.234,22.459-1.389,40.518-3.473,54.172c0,0.695,0.113,2.779,0.348,6.254c0,3.01,0.113,5.326,0.346,6.943
		c0.924,4.402,3.127,7.064,6.598,7.986c1.156,0.236,1.617,0.93,1.391,2.086c-0.234,1.16-0.928,1.621-2.084,1.389
		c-5.096-1.389-8.221-4.975-9.377-10.766c-0.467,1.621-0.928,3.125-1.389,4.514c-1.855,5.328-4.166,8.334-6.945,9.031
		c-4.861,1.152-9.029,0.346-12.502-2.432c-2.549-2.312-4.514-5.785-5.902-10.42c-1.389-4.627-2.318-12.729-2.779-24.307
		c-0.232-3.475-0.754-14.064-1.562-31.775s-1.27-30.56-1.389-38.547c-0.113-7.986,0-18.691,0.348-32.121
		c0.348-13.426,1.215-25.118,2.604-35.075c0.229-1.155,0.922-1.616,2.084-1.388C239.442,114.893,239.903,115.587,239.674,116.744z"
		/>
	<path fill="#575756" d="M321.971,51.104c-2.316,6.188-3.244,15.243-2.777,27.155c0,2.525,0.229,7.107,0.693,13.752
		c0.463,6.649,0.695,11.574,0.695,14.781c0,19.71,0.287,49.156,0.869,88.343c0.574,39.187,0.867,68.638,0.867,88.345
		c0,1.148-0.58,1.719-1.736,1.719c-1.16,0-1.736-0.57-1.736-1.719c0-19.707-0.293-49.158-0.869-88.345
		c-0.58-39.187-0.867-68.633-0.867-88.343c0-3.207-0.232-8.132-0.693-14.781c-0.469-6.645-0.695-11.227-0.695-13.752
		c-0.467-12.143,0.461-21.654,2.777-28.529c0.461-0.914,1.215-1.203,2.258-0.859C321.797,49.215,322.2,49.961,321.971,51.104z"/>
	<path fill="#575756" d="M363.295,45.604c16.668,10.312,29.518,33.918,38.545,70.814c3.701,15.355,6.133,30.713,7.293,46.062
		c0.924,15.358,0.576,27.845-1.043,37.469c-4.398,26.587-18.637,55.806-42.711,87.655c-0.695,0.922-1.51,1.035-2.432,0.346
		c-0.928-0.686-1.041-1.486-0.348-2.408l1.736-2.404c0-19.477-0.293-48.814-0.867-88.001c-0.58-39.187-0.869-68.633-0.869-88.343
		c0-3.207-0.232-8.132-0.693-14.781c-0.467-6.645-0.695-11.227-0.695-13.752c-0.467-11.912,0.461-21.311,2.777-28.186
		c-0.928-0.457-1.855-1.033-2.777-1.721c-0.928-0.455-1.102-1.202-0.521-2.234C361.264,45.09,362.133,44.916,363.295,45.604z
		 M367.809,278.668c20.604-28.643,32.871-55.113,36.811-79.406c1.617-9.395,1.91-21.711,0.867-36.953
		c-1.041-15.238-3.299-30.305-6.771-45.203c-7.639-31.164-18.291-52.707-31.947-64.627c-1.855,6.188-2.551,14.781-2.084,25.781
		c0,2.525,0.229,7.107,0.695,13.752c0.461,6.649,0.693,11.574,0.693,14.781c0,19.71,0.289,48.64,0.867,86.797
		C367.516,231.744,367.809,260.105,367.809,278.668z"/>
	<g>
		<path fill="#575756" d="M53.647,36.951C77.182,21.83,124.37,12.259,195.09,8.244c44.754-2.779,87.184-1.854,127.303,2.777
			c40.055,4.326,70.721,12.35,91.932,24.076c40.057,21.921,62.434,45.072,67.189,69.453c7.07,24.699,7.895,52.852,1.059,87.651
			c-13.643,69.452-38.801,93.39-57.637,109.13c-9.445,9.262-21.221,16.83-35.361,22.689c-1.574,0.643,0,0,0.15,31.404
			c0.01,1.93,45.787,2.105,45.82,4.027c0.035,1.943,0.068,3.885,0.102,5.818c0.02,0.967-45.682,3.68-45.666,4.641
			c0.822,47.49-1.25,123.082-2.713,123.574c0,0-14.301,1.498-15.047,1.736c-1.5,0.479-23.213-1.641-34.727-3.473
			c0,0-3.506-7.074-3.473-8.104c0.049-1.588,28.303,1.523,39.936-1.158c0,0-0.596-8.557-0.574-9.494l-39.941-4.396
			c0,0,0.174-2.629,0.193-4.215c0.035-2.592,39.562,1,39.59-1.807c0.141-14.744,3.264-73.404,3.209-91.516
			c-0.006-1.732-42.064-5.205-42.072-6.945c-0.004-1.35-0.012-2.701-0.018-4.053c-0.01-1.93,42.031-2.125,42.018-4.057
			c-0.338-53.246-1.346-26.484-4.088-25.916c-11.195,2.314-36.926,7.053-49.881,7.822c-47.189,2.775-90.787,1.076-130.842-5.092
			c-30.664-4.629-57.787-11.576-81.322-20.836c-33.047-13.582-54.258-27.16-63.652-40.748
			c-18.896-29.631-31.828-70.377-38.9-122.235c-4.748-29.937-2.375-53.552,7.072-70.843C21.827,59.334,34.752,45.596,53.647,36.951z
			 M99.618,32.32c0,0-33.514,11.715-47.404,31.779c-6.943,10.029-11.549,56.506-9.176,84.901c4.697,48.466,17.68,89.21,38.9,122.235
			c9.395,12.965,30.604,26.09,63.65,39.357c21.213,8.645,44.754,14.975,70.723,18.984c30.604,4.328,61.268,5.557,91.932,3.703
			c16.463-0.926,31.83-4.473,45.969-10.648c14.143-5.557,27.076-12.963,38.902-22.225c16.463-15.432,62.055-40.299,53.039-195.857
			c-1.402-24.197-27.133-46.605-67.189-68.525c-18.895-10.491-45.971-17.748-81.33-21.764c-25.967-3.082-55.414-3.703-88.402-1.852
			C162.051,15.188,125.526,21.83,99.618,32.32z"/>
	</g>
</g>
</svg>
